<?xml version="1.0" encoding="UTF-8"?>
<svg width="24px" height="24px" viewBox="0 0 24 24" version="1.1" xmlns="http://www.w3.org/2000/svg" xmlns:xlink="http://www.w3.org/1999/xlink">
    <!-- Generator: Sketch 45.2 (43514) - http://www.bohemiancoding.com/sketch -->
    <title>icon_contact</title>
    <desc>Created with Sketch.</desc>
    <defs></defs>
    <g id="Page-1" stroke="none" stroke-width="1" fill="none" fill-rule="evenodd">
        <g id="01_home_option2" transform="translate(-277.000000, -12.000000)" fill-rule="nonzero" fill="#FFFFFF">
            <g id="icon_contact" transform="translate(277.326172, 12.000000)">
                <g id="layer_copy">
                    <path d="M23.0317709,16.5764391 C22.4118273,15.5551323 20.7758896,15.1044367 19.8558407,14.9265871 C18.1767056,14.6021319 16.0127217,14.626798 14.9638394,15.4134598 C14.618576,15.6725813 14.4466084,16.2080274 14.4064467,17.1497066 C14.401134,17.2737965 14.3987939,17.3949771 14.3981614,17.5097698 C12.6159975,16.8214565 10.9708891,15.7946473 9.56681365,14.4939801 L8.95022213,13.8808671 C7.64405247,12.4866582 6.61237324,10.8531239 5.92051821,9.08392554 C6.03619632,9.08335632 6.15832559,9.08101619 6.28342745,9.07576672 C7.22845878,9.03585809 7.7658655,8.8651554 8.0259357,8.5223586 C8.81367263,7.48403846 8.84219687,5.34010377 8.52103042,3.67602136 C8.34299112,2.7531896 7.88989217,1.11257169 6.85669502,0.492501606 C5.82881058,-0.124406146 4.24011817,0.024413204 3.60474239,0.117132782 C2.29395573,0.308200889 1.20345712,0.771356053 0.687554252,1.35588152 C0.237997116,1.86533323 0.0800702495,3.3191838 0.0330779941,3.92053288 C0.0318130612,3.93634454 0.0313703347,3.95259893 0.0316233213,3.96847384 C0.108973965,8.86673657 1.99321794,13.544142 5.33713118,17.1373103 C5.34162169,17.1420538 5.34617545,17.1487579 5.35079246,17.1533749 L6.28823419,18.0894885 C6.2928512,18.0941055 6.29753145,18.1066283 6.30240144,18.1109291 C9.91523941,21.4352991 14.6167418,23.2747645 19.5409989,23.4012578 C19.543592,23.4012578 19.5462484,23.4012578 19.5488415,23.4012578 C19.5618703,23.4012578 19.5748991,23.3849401 19.5879279,23.3839914 C20.1919334,23.3372522 21.6520454,23.1645888 22.1633945,22.718447 C22.7517147,22.2051373 23.2177793,21.1197616 23.4101755,19.8149834 C23.5034011,19.1823272 23.6532324,17.6004022 23.0317709,16.5764391 Z M22.4090444,19.6673025 C22.2578217,20.692657 21.8917501,21.6123897 21.4985458,21.9555028 C21.3222774,22.1007803 20.4076677,22.2873579 19.5330931,22.3573719 C14.8694122,22.2787563 10.4177972,20.5036128 6.99482568,17.3569659 L6.0714247,16.4386879 C2.90770115,13.0358288 1.12307063,8.61109364 1.04401233,3.97530447 C1.11389987,3.10787677 1.30098344,2.20028745 1.44651396,2.02522074 C1.79240985,1.63334455 2.71846719,1.26891739 3.75096863,1.11839038 C4.83394089,0.960463514 5.8246363,1.0530566 6.33617515,1.36011905 C6.82975195,1.65636632 7.28632946,2.61720932 7.52767865,3.86778518 C7.84441783,5.50903556 7.71628014,7.23402449 7.23060917,7.89659631 C7.03448133,8.0343475 6.14523353,8.10815633 5.31113681,8.05825473 C5.22056762,8.0354227 5.12272506,8.03694061 5.02753887,8.06869043 C4.94443278,8.09645571 4.87334355,8.14376419 4.81756001,8.20372201 C4.73717353,8.28625888 4.68429934,8.39643453 4.67531831,8.52039795 C4.66760222,8.62722153 4.69384958,8.72854265 4.74463663,8.81424185 C5.4441445,10.8591323 6.56316735,12.7529898 8.01866233,14.3628698 C8.03586542,14.3903821 8.05597785,14.4166295 8.07899963,14.4411692 C8.22895742,14.6009934 8.38220404,14.7578451 8.53836,14.9112814 C8.69299804,15.0669314 8.85086166,15.2195456 9.01207735,15.3689342 C9.03680679,15.3918294 9.06318064,15.4118154 9.09075617,15.4288287 C10.7092378,16.8754692 12.6132147,17.9881041 14.6686673,18.6833745 C14.7543033,18.7339718 14.8554979,18.7600926 14.9623215,18.7520603 C15.0871071,18.743016 15.197852,18.6891931 15.2804521,18.6077315 C15.2889271,18.5997624 15.2965167,18.5910344 15.3044858,18.5824961 C15.3066362,18.5800294 15.3088498,18.5775628 15.3110635,18.575033 C15.3556524,18.5249416 15.3920192,18.4662487 15.4144085,18.3985116 C15.4458421,18.3034519 15.447107,18.2059256 15.4240852,18.1156093 C15.3743101,17.2884065 15.4479925,16.4071278 15.5857436,16.2124546 C16.2575495,15.7253922 18.0036628,15.5994049 19.6640769,15.9202551 C20.9118699,16.1614146 21.8710052,16.6140708 22.166873,17.1015759 C22.4747577,17.6089405 22.5675405,18.5921096 22.4090444,19.6673025 Z" id="Shape"></path>
                </g>
            </g>
        </g>
    </g>
</svg>