<?xml version="1.0" encoding="UTF-8"?>
<svg width="175px" height="345px" viewBox="0 0 175 345" version="1.1" xmlns="http://www.w3.org/2000/svg" xmlns:xlink="http://www.w3.org/1999/xlink">
    <!-- Generator: Sketch 45.2 (43514) - http://www.bohemiancoding.com/sketch -->
    <title>path4400-3-2</title>
    <desc>Created with Sketch.</desc>
    <defs></defs>
    <g id="Page-1" stroke="none" stroke-width="1" fill="none" fill-rule="evenodd">
        <g id="03_select_damage_area" transform="translate(-67.000000, -65.000000)" fill-rule="nonzero" fill="#222222">
            <path d="M124.176738,150.451345 C124.148478,150.45182 124.05815,150.465672 123.986757,150.467176 C123.291917,150.482533 120.822242,150.541981 119.474707,150.847138 C117.967983,151.188344 116.462272,151.652587 115.136806,152.446146 C113.1541,153.63325 111.482211,155.328617 109.94399,157.053186 C108.66028,158.492435 107.678142,160.174979 106.619322,161.786881 C106.193669,162.434898 105.644276,163.040708 105.416108,163.781682 C105.384603,163.883884 105.342491,163.975439 105.321118,164.082485 C80.578658,164.152303 55.8365544,164.328028 31.1018529,164.889905 C16.2499207,165.386286 1.68053796,172.847253 -6.45106286,185.455354 C-9.93546107,189.519563 -12.1616338,194.319823 -13.1637268,199.513952 C-18.9565469,215.15009 -16.4813217,232.193504 -17.0108432,248.513233 C-17.5027422,261.527307 -14.769567,274.615648 -8.87332132,286.192809 C-2.01809556,296.997736 8.23015386,306.636924 21.3336634,308.594742 C39.6910618,312.411232 58.5983802,310.244134 77.2039216,310.874515 C86.5874343,310.853696 95.9690155,310.860108 105.352781,310.858683 C105.368851,310.92573 105.39616,310.983809 105.416108,311.048664 C105.644276,311.789637 106.193669,312.395463 106.619322,313.043465 C107.678142,314.655359 108.66028,316.337934 109.94399,317.77716 C111.482211,319.501736 113.1541,321.197127 115.136806,322.3842 C116.462272,323.177783 117.967983,323.642025 119.474707,323.983207 C120.822242,324.288341 123.291917,324.347884 123.986757,324.36317 C124.2996,324.427367 124.635772,324.371719 124.857503,324.204852 C125.079235,324.037993 125.149172,323.873517 125.205802,323.492423 C125.2624,323.111345 125.205327,322.946726 124.952494,321.988406 C124.699858,321.030086 124.09602,319.360707 123.448477,317.840487 C122.800934,316.320274 121.726117,314.233625 121.010387,312.916811 C120.552746,312.074831 120.180811,311.438347 119.823005,310.858683 C132.03046,310.864224 144.234288,310.864224 156.441854,310.874515 C156.484758,310.930876 156.530092,310.99144 156.584339,311.048664 C156.865955,311.345691 157.275285,311.739055 158.056693,312.014401 C158.838109,312.289747 158.87745,312.212472 161.254707,312.331036 C163.631964,312.449608 169.654822,312.407741 171.418709,312.299372 C173.182596,312.19098 173.496698,312.16333 174.363416,311.82442 C175.063456,311.550689 175.585983,311.418818 175.693283,310.890346 C194.292223,310.895096 212.901809,310.873723 231.500242,310.795356 C232.183976,311.027164 232.338391,310.967399 234.603266,311.080327 C236.980309,311.198899 243.019173,311.157032 244.783061,311.048664 C246.237603,310.959286 246.710988,310.91673 247.316141,310.716197 C262.682672,310.62009 278.052796,310.474691 293.418211,310.257076 C304.163334,310.282407 314.841338,303.584538 318.448239,293.253772 C327.660444,270.527296 327.49478,245.330385 326.554097,221.187624 C325.350884,205.424215 323.317073,188.839819 314.775272,175.228041 C307.121877,164.386914 292.372603,164.066994 280.356989,164.114149 C269.041662,163.995783 257.729992,163.949158 246.413708,163.924168 C246.029233,163.87319 245.560107,163.829446 244.783061,163.781682 C243.019173,163.673369 236.980309,163.63147 234.603266,163.750018 C233.042944,163.827832 232.518944,163.827436 232.101801,163.892504 C217.610703,163.888546 203.119051,163.923693 188.62785,163.924168 C184.32212,163.94744 180.014719,163.957573 175.709091,163.971663 C175.618708,163.413095 175.07871,163.285649 174.363416,163.005926 C173.496698,162.667 173.182596,162.639342 171.418709,162.530973 C169.654822,162.422613 163.631964,162.380714 161.254707,162.49931 C158.87745,162.617858 158.838109,162.540631 158.056693,162.815945 C157.275285,163.091291 156.865955,163.484655 156.584339,163.781682 C156.513967,163.855933 156.444102,163.929701 156.394358,164.003327 C144.187426,164.018921 131.982663,164.03404 119.77551,164.050822 C120.148371,163.451028 120.531571,162.794477 121.010387,161.913535 C121.726117,160.596689 122.800934,158.510111 123.448477,156.989859 C124.09602,155.469655 124.699858,153.800259 124.952494,152.84194 C125.205327,151.883572 125.262432,151.719049 125.205802,151.337923 C125.149203,150.956845 125.079235,150.792321 124.857503,150.625494 C124.70593,150.511307 124.499983,150.459158 124.28756,150.451345 C124.251464,150.449761 124.21323,150.449761 124.176738,150.451345 L124.176738,150.451345 Z M165.798421,163.971663 C166.249032,163.966914 166.761118,163.966914 167.254942,163.987495 C166.552598,163.989078 165.851679,163.985912 165.149319,163.987495 C165.372847,163.978787 165.601933,163.97388 165.798421,163.971663 L165.798421,163.971663 Z M293.734846,169.766085 C296.888231,169.686879 300.443607,170.15956 302.363176,171.143448 C307.0625,173.552265 309.880956,177.262951 310.97565,182.494816 C311.33287,184.20254 312.184136,186.683827 312.859606,188.020098 C314.868948,191.995151 316.718042,197.742134 316.548428,199.466457 L316.390063,201.065464 L314.822743,199.593111 C313.961393,198.785557 312.487543,196.46425 311.561402,194.431959 C306.20039,182.668023 299.041856,175.815897 288.130405,171.982531 C287.180959,171.648972 287.188051,171.612187 288.082751,170.953467 C289.078806,170.22033 291.28208,169.827695 293.734711,169.766085 L293.734846,169.766085 Z M124.065915,170.763486 C125.08609,170.757153 126.252534,170.761111 127.548901,170.763486 C136.191338,170.780109 150.585561,170.970541 165.671767,171.285934 L176.437352,171.507578 L180.632791,178.093588 C182.937285,181.708722 184.888976,185.012176 184.970691,185.439522 C185.117254,186.206278 185.0783,186.204742 181.725158,186.151951 C179.856298,186.122504 174.98448,185.983343 170.912093,185.835316 C159.407775,185.417168 141.668048,183.573521 130.461944,181.639901 L125.981558,180.879977 L124.540868,178.631868 C123.747634,177.40068 122.27194,175.248202 121.263695,173.834846 C120.255465,172.42149 119.373922,171.117634 119.300557,170.937635 C119.263907,170.847671 121.005408,170.782951 124.065915,170.763486 L124.065915,170.763486 Z M23.0751564,171.127616 C23.8979644,171.127656 24.8319033,171.122867 25.8932056,171.127616 C37.3284495,171.174716 39.3701126,172.052895 34.9964637,175.006396 C32.4696365,176.712758 16.2017922,186.593998 9.61816812,190.426525 C4.02035731,193.685183 1.81531052,195.56218 -0.68830416,199.197317 C-1.69603967,200.660504 -3.22679303,202.183004 -4.10796317,202.601144 C-5.74447265,203.377724 -8.29667182,203.60525 -8.87332132,203.028602 C-9.05190351,202.85002 -9.20578817,201.417919 -9.20578817,199.846419 C-9.20578817,196.794429 -8.27862362,194.513603 -4.93121441,189.239143 C-2.17677407,184.89901 3.1821229,178.817725 6.35682666,176.431254 C7.98089872,175.210412 11.1141613,173.5023 13.3227987,172.647465 C16.811386,171.297246 17.3154691,171.127371 23.0751564,171.127616 L23.0751564,171.127616 Z M195.245476,171.776718 C196.55082,171.773552 198.605046,171.823422 201.784015,171.903372 C228.466268,172.574916 245.82107,173.164633 246.033745,173.391557 C246.390807,173.771622 247.379468,179.892923 247.379468,181.734892 C247.379468,184.604817 247.603646,184.523719 237.70629,185.043729 C231.08355,185.391671 205.984726,186.174076 200.010858,186.215278 C199.429469,186.219236 198.790927,185.065838 196.322036,179.565941 C194.680647,175.909376 193.222455,172.638163 193.092358,172.299166 C192.95197,171.932954 193.070035,171.7818 195.245476,171.776718 L195.245476,171.776718 Z M262.00801,175.608003 C262.583985,175.589321 263.297601,175.630563 264.2086,175.702993 C267.779025,175.986865 276.249955,177.188336 276.715733,177.47615 C277.715794,178.094324 272.568423,179.920636 266.266775,181.196612 C261.57642,182.146288 261.031254,182.201936 259.870746,181.734892 C258.792517,181.301086 258.578931,179.997246 259.253284,177.966934 C259.826473,176.241107 260.280092,175.664079 262.00801,175.608003 Z M73.0401702,178.568541 C74.563937,178.568541 116.587549,187.808626 123.875934,189.74576 C128.789723,191.051769 137.819309,194.103023 143.934768,196.521751 C157.849297,202.02509 164.967072,203.899348 171.988653,203.899348 C177.33335,203.899348 177.64203,204.041272 182.025985,208.728033 L186.538011,213.556719 L186.538011,237.494332 L186.538011,261.447776 L182.136784,266.149808 L177.751411,270.836007 L169.233927,271.342623 C162.516047,271.735108 158.770626,272.600195 151.470683,275.443048 C133.279759,282.527243 121.434377,285.981772 99.3525464,290.689027 C87.0303909,293.315785 75.9728286,295.689685 74.7816632,295.961002 C73.0371067,296.358387 72.2581686,295.746774 70.7603975,292.794651 C68.4573205,288.255243 63.3938583,272.453601 61.9421101,265.263229 C58.7403673,249.405344 58.9916806,221.206591 62.4487263,207.303176 C65.6726098,194.337483 71.4857372,178.568541 73.0401702,178.568541 Z M298.801007,183.555544 C301.488202,183.423895 302.302335,185.745234 305.2287,191.233945 C313.18779,206.162102 315.597715,219.019062 314.854407,242.687147 C314.271244,261.255888 312.691868,268.392265 306.25774,281.474946 C300.651272,292.875036 300.504203,292.952992 292.230853,289.010861 C288.480524,287.223987 282.883429,284.814845 279.802902,283.659728 C276.722375,282.504612 274.198461,281.383605 274.198461,281.174143 C274.198461,280.964681 275.726114,277.775754 277.586456,274.081517 C283.425564,262.486617 285.339662,253.269432 285.280689,237.019379 C285.221636,220.752956 283.503733,212.673608 277.61812,200.986305 C275.671043,197.119922 274.220142,193.842234 274.388442,193.703698 C274.556789,193.565163 280.350451,190.9886 287.259635,187.972603 C293.497496,185.249763 296.710962,183.657943 298.801007,183.555544 L298.801007,183.555544 Z M-7.71760323,271.342623 C-7.33113743,271.308822 -6.85279046,271.375395 -6.2610818,271.516772 C-3.3648016,272.208802 -2.94175812,272.542757 -0.498323104,275.902168 C2.40059149,279.887813 4.05252744,281.206907 11.2488389,285.369558 C21.9129077,291.538124 36.2545658,300.524331 36.7696202,301.35963 C37.8736872,303.150154 36.5598099,303.449548 26.7006251,303.560244 C18.5600271,303.651641 17.0159085,303.54275 14.7951487,302.736993 C7.3703566,300.042919 1.46081854,295.016511 -4.10796317,286.65193 C-8.20644348,280.495823 -9.17686038,278.244936 -9.18995641,274.888936 C-9.19958212,272.429465 -8.87700695,271.443938 -7.71760323,271.342623 Z M316.390063,273.891536 L316.532573,275.348057 C316.704418,277.035968 314.656573,283.438677 312.922933,286.604435 C312.275628,287.786521 311.417269,290.30263 311.023122,292.193044 C309.345106,300.24076 303.128475,305.23328 294.985531,305.095924 C293.359997,305.068535 291.36545,304.894932 290.552639,304.70013 C289.739924,304.505328 288.651103,304.104967 288.130405,303.813552 C287.24423,303.317646 287.279393,303.253424 288.637021,302.705329 C294.959337,300.152831 298.43751,298.035674 301.777377,294.741957 C305.763892,290.810568 308.271136,287.16286 311.513883,280.540873 C312.745664,278.025421 314.335584,275.493218 315.060196,274.9206 L316.390063,273.891536 Z M199.298406,288.662563 L206.201051,288.741722 C214.580228,288.836324 231.056296,289.414049 239.970207,289.913271 C245.281674,290.21075 246.586764,290.380815 246.936179,290.831513 C247.529933,291.597319 247.467366,294.621683 246.762054,298.304101 L246.160399,301.391293 L244.608935,301.62877 C243.105607,301.856138 225.156703,302.389129 203.5097,302.847815 C196.00981,303.006726 192.90324,302.965176 192.997415,302.705329 C193.070795,302.502619 194.51716,299.260608 196.211237,295.501881 L199.298406,288.662563 L199.298406,288.662563 Z M178.907106,288.805049 C182.623388,288.798716 185.034018,288.946988 185.034018,289.295833 C185.034018,289.747054 177.447592,302.00642 176.627333,302.879478 C176.223156,303.309675 167.404117,303.540953 128.989591,304.114355 L118.936427,304.272673 L120.345453,302.325367 C121.125404,301.256067 122.700846,298.936809 123.844271,297.180047 C125.112252,295.231926 126.210485,293.921191 126.646491,293.823715 C130.547657,292.951543 145.450666,290.965038 154.732024,290.071589 C162.915054,289.283872 172.713367,288.815862 178.907106,288.805049 L178.907106,288.805049 Z M261.691374,292.984632 C263.123373,293.00458 265.156122,293.353702 267.929086,293.982032 C274.874746,295.555883 278.382754,297.107308 276.066608,297.591672 C273.833998,298.058575 267.271546,298.862764 264.018619,299.064026 L260.519825,299.269838 L259.823227,298.129952 C259.441492,297.50231 259.029716,296.38238 258.904986,295.644367 C258.592958,293.797276 259.304706,292.951369 261.691374,292.984632 L261.691374,292.984632 Z" id="path4400-3-2" transform="translate(154.940670, 237.419643) rotate(-90.000000) translate(-154.940670, -237.419643) "></path>
        </g>
    </g>
</svg>